Coordinates
version=1
nRows=11
nColumns=40
inDegrees=yes

Units are S.I. units (second, meters, Newtons, ...)
Angles are in degrees.

endheader
time	pelvis_tilt	pelvis_list	pelvis_rotation	pelvis_tx	pelvis_ty	pelvis_tz	hip_flexion_r	hip_adduction_r	hip_rotation_r	knee_angle_r	knee_angle_r_beta	ankle_angle_r	subtalar_angle_r	mtp_angle_r	hip_flexion_l	hip_adduction_l	hip_rotation_l	knee_angle_l	knee_angle_l_beta	ankle_angle_l	subtalar_angle_l	mtp_angle_l	lumbar_extension	lumbar_bending	lumbar_rotation	arm_flex_r	arm_add_r	arm_rot_r	elbow_flex_r	pro_sup_r	wrist_flex_r	wrist_dev_r	arm_flex_l	arm_add_l	arm_rot_l	elbow_flex_l	pro_sup_l	wrist_flex_l	wrist_dev_l
     30.26242857	     -5.01497166	     -5.68146252	     12.04438020	      0.87849273	      0.91586615	      0.48110047	      7.59089134	      4.61627724	    -16.22149546	     19.36210382	     19.36210382	     18.45564927	    -11.57042843	     -0.03593842	     32.04635453	     -5.36589979	      6.48138651	     22.45802531	     22.45802531	      5.21942130	     -8.87675660	      6.51185040	    -10.02337327	      2.75004820	      3.38075214	     69.64641624	    -18.48108283	      2.31956548	     81.28133405	     44.59337822	      0.00000000	      0.00000000	    -28.48540508	    -10.95556388	     10.93438359	     31.87670523	     44.84575343	      0.00000000	      0.00000000
     30.28485714	     -5.12302179	     -5.79798396	     12.37284715	      0.88034422	      0.91538115	      0.47656125	      6.92315726	      4.59174378	    -16.46538230	     18.78820058	     18.78820058	     18.65170794	    -11.41131406	     -0.01419848	     32.02522969	     -5.26058865	      6.16773957	     22.84252778	     22.84252778	      4.97681037	     -9.12084679	      5.95978265	     -9.85472149	      2.75169958	      3.19892204	     71.17853886	    -17.69021164	      2.54103709	     82.71998466	     44.55722947	      0.00000000	      0.00000000	    -28.50453193	    -10.82480332	     11.20904668	     31.90128002	     44.82877527	      0.00000000	      0.00000000
     30.30728571	     -5.24092190	     -5.88618517	     12.60116497	      0.88237943	      0.91489073	      0.47184801	      6.28437337	      4.51731267	    -16.62443316	     18.28862389	     18.28862389	     18.81722477	    -11.23423033	      0.01855826	     32.02508495	     -5.11347190	      5.93267761	     23.47921779	     23.47921779	      4.88586337	     -9.59065441	      5.43012683	     -9.64259289	      2.78577836	      3.20317024	     72.46120780	    -17.10954839	      2.72459120	     83.95236378	     44.52339915	      0.00000000	      0.00000000	    -28.22890845	    -10.73388991	     11.35823598	     32.05036467	     44.82505120	      0.00000000	      0.00000000
     30.32971429	     -5.29669480	     -6.01818993	     12.80531744	      0.88461713	      0.91459770	      0.46700050	      5.48469111	      4.51686687	    -16.84901584	     17.60781459	     17.60781459	     18.90733709	    -10.87493762	      0.09188920	     31.98531284	     -4.97266431	      5.91818920	     24.25852454	     24.25852454	      4.84104727	    -10.23011781	      4.67762926	     -9.51101827	      2.82467235	      3.08678607	     73.29347749	    -16.52963505	      3.06229070	     85.53773918	     44.47413599	      0.00000000	      0.00000000	    -27.77967522	    -10.59718319	     11.56585315	     32.25479322	     44.82060288	      0.00000000	      0.00000000
     30.35214286	     -5.41824504	     -6.03765802	     12.89299229	      0.88698313	      0.91446363	      0.46208761	      4.73599849	      4.34916283	    -17.15620923	     16.96990976	     16.96990976	     18.98209186	    -10.28422091	      0.09416699	     31.75952825	     -4.70263171	      5.95242019	     24.66919693	     24.66919693	      4.17166861	    -11.25968005	      2.59722010	     -9.35882120	      2.69581706	      3.67040513	     73.39234028	    -17.19925785	      3.58478236	     88.54659372	     44.41776995	      0.00000000	      0.00000000	    -26.79781787	    -10.86322611	     12.46261233	     32.50483093	     44.80527033	      0.00000000	      0.00000000
     30.37457143	     -5.49819094	     -6.13045666	     12.90494965	      0.88922439	      0.91444473	      0.45729585	      3.99180956	      4.29465119	    -17.25079127	     16.34798201	     16.34798201	     18.94044259	     -9.93359613	      0.23171344	     31.66386961	     -4.51364146	      6.07704999	     25.41550156	     25.41550156	      4.50378021	    -11.87506270	      2.32040063	     -9.22541599	      2.65869663	      3.64441751	     74.00330031	    -16.64813048	      3.83966423	     89.25251283	     44.40188047	      0.00000000	      0.00000000	    -25.99627577	    -10.76924115	     12.68776904	     32.68846024	     44.80815712	      0.00000000	      0.00000000
     30.39700000	     -5.61785291	     -6.13946885	     12.79866212	      0.89146402	      0.91457889	      0.45258335	      3.35505046	      4.10575039	    -17.30336353	     15.88490522	     15.88490522	     18.87536274	     -9.52593268	      0.33504812	     31.48890616	     -4.27464509	      6.10394066	     26.00418402	     26.00418402	      4.95125070	    -12.35688415	      2.14759441	     -9.04275884	      2.55385703	      3.74685128	     74.42606472	    -16.23050079	      4.11956693	     89.89355636	     44.38336343	      0.00000000	      0.00000000	    -25.14377105	    -10.78514747	     12.80592872	     32.88589241	     44.82041640	      0.00000000	      0.00000000
     30.41942857	     -5.76992349	     -6.10891695	     12.64801050	      0.89354153	      0.91493582	      0.44794432	      2.80422216	      3.80460370	    -17.60195238	     15.52564150	     15.52564150	     18.78082784	     -8.71162933	      0.45569605	     31.27405245	     -4.00632330	      6.10224153	     26.45358007	     26.45358007	      5.67645268	    -12.57778743	      2.52164357	     -8.88803582	      2.35562904	      4.19229470	     74.49382378	    -16.63205981	      4.71935982	     91.35222090	     44.37560153	      0.00000000	      0.00000000	    -23.91482790	    -10.98594747	     13.44810109	     32.83053188	     44.84331795	      0.00000000	      0.00000000
     30.44185714	     -5.99684151	     -6.07060775	     12.43578523	      0.89544416	      0.91530350	      0.44356052	      2.49728008	      3.50041759	    -17.53122148	     15.41149911	     15.41149911	     18.55787981	     -8.58219254	      0.56705801	     31.05995450	     -3.75611807	      6.04996416	     26.70658915	     26.70658915	      6.20608587	    -12.75011323	      2.30720470	     -8.62198287	      2.11661401	      4.23383033	     74.62602166	    -16.24020009	      4.89143395	     91.47526113	     44.36942536	      0.00000000	      0.00000000	    -23.01557500	    -11.07685520	     13.42598739	     33.11062220	     44.86374549	      0.00000000	      0.00000000
     30.46428571	     -6.14915377	     -6.05077062	     12.20328906	      0.89719404	      0.91590004	      0.43937200	      2.17953027	      3.21332792	    -17.48402045	     15.38093265	     15.38093265	     18.24258427	     -8.37269212	      0.67719027	     30.73883807	     -3.58723021	      5.87748380	     26.84100721	     26.84100721	      6.76641929	    -12.84271426	      2.12656425	     -8.46124226	      1.95842947	      4.29078205	     74.73822187	    -15.86731809	      5.09252437	     91.61383171	     44.36221745	      0.00000000	      0.00000000	    -22.11578102	    -11.27485650	     13.37767011	     33.36630360	     44.88789197	      0.00000000	      0.00000000
     30.48671429	     -6.21852437	     -5.97962349	     11.91430689	      0.89890870	      0.91683142	      0.43544079	      1.82751228	      2.83701337	    -17.68209392	     15.46697496	     15.46697496	     17.96798369	     -7.74749916	      0.66326197	     30.23085756	     -3.52137489	      5.36085051	     26.81979366	     26.81979366	      7.62485137	    -12.20326517	      2.06334003	     -8.46076538	      1.70630454	      4.49632333	     74.74946951	    -15.89214926	      5.50309640	     91.99403474	     44.35999459	      0.00000000	      0.00000000	    -21.09124322	    -11.56472510	     13.35146511	     33.50264350	     44.93936669	      0.00000000	      0.00000000
